<svg id="visual" viewBox="0 0 960 540" width="960" height="540" xmlns="http://www.w3.org/2000/svg" xmlns:xlink="http://www.w3.org/1999/xlink" version="1.1"><rect x="0" y="0" width="960" height="540" fill="#442917"></rect><defs><linearGradient id="grad1_0" x1="43.8%" y1="100%" x2="100%" y2="0%"><stop offset="14.444444444444446%" stop-color="#442917" stop-opacity="1"></stop><stop offset="85.55555555555554%" stop-color="#442917" stop-opacity="1"></stop></linearGradient></defs><defs><linearGradient id="grad2_0" x1="0%" y1="100%" x2="56.3%" y2="0%"><stop offset="14.444444444444446%" stop-color="#442917" stop-opacity="1"></stop><stop offset="85.55555555555554%" stop-color="#442917" stop-opacity="1"></stop></linearGradient></defs><g transform="translate(960, 540)"><path d="M-486 0C-500.8 -83 -515.5 -165.9 -449 -186C-382.5 -206 -234.6 -163.1 -175.4 -175.4C-116.1 -187.6 -145.3 -255 -130.9 -316C-116.4 -376.9 -58.2 -431.5 0 -486L0 0Z" fill="#d6cbc4"></path></g><g transform="translate(0, 0)"><path d="M486 0C488.1 69.5 490.1 138.9 449 186C407.9 233 323.5 257.7 260.2 260.2C196.9 262.8 154.7 243.2 114.8 277.2C74.9 311.1 37.5 398.6 0 486L0 0Z" fill="#d6cbc4"></path></g></svg>